PathFileType	4	(X/Y/Z)	c:/Users/goper/Files/vsCode/490R/osim_files/C12/C12_ROM.trc
DataRate	CameraRate	NumFrames	NumMarkers	Units                	OrigDataRate	OrigDataStartFrame	OrigNumFrames
120.00	120.00	8	36	mm	120.0	717	1911
                Frame#	Time	LPSIS			LASIS			LTH1			LTH2			LTH3			LTH4			LLFE			LMFE			LSH1			LSH2			LSH3			LSH4			LLMAL			LMMAL			LCAL			LMTP5			LTOE			LMTP1			RPSIS			RASIS			RTH1			RTH2			RTH3			RTH4			RLFE			RMFE			RSH1			RSH2			RSH3			RSH4			RLMAL			RMMAL			RCAL			RMTP1			RTOE			RMTP5		
		X1	Y1	Z1	X2	Y2	Z2	X3	Y3	Z3	X4	Y4	Z4	X5	Y5	Z5	X6	Y6	Z6	X7	Y7	Z7	X8	Y8	Z8	X9	Y9	Z9	X10	Y10	Z10	X11	Y11	Z11	X12	Y12	Z12	X13	Y13	Z13	X14	Y14	Z14	X15	Y15	Z15	X16	Y16	Z16	X17	Y17	Z17	X18	Y18	Z18	X19	Y19	Z19	X20	Y20	Z20	X21	Y21	Z21	X22	Y22	Z22	X23	Y23	Z23	X24	Y24	Z24	X25	Y25	Z25	X26	Y26	Z26	X27	Y27	Z27	X28	Y28	Z28	X29	Y29	Z29	X30	Y30	Z30	X31	Y31	Z31	X32	Y32	Z32	X33	Y33	Z33	X34	Y34	Z34	X35	Y35	Z35	X36	Y36	Z36

717	5.96667	-228.22586	1029.27661	483.92905	-44.81036	986.37628	437.37408	-175.74876	740.23383	364.68378	-172.46284	697.13300	354.52786	-114.42898	742.81586	355.17615	-118.99023	698.96814	346.48929	-145.40013	517.64905	339.49457	-135.07932	473.99985	455.44159	-220.91376	447.39307	298.89600	-230.44756	406.35675	275.86948	-163.06050	430.24606	295.55295	-181.42009	390.47763	275.91370	-281.91827	112.48481	215.07701	-267.99878	100.55470	293.33701	-344.72086	79.64741	247.91388	-158.86705	41.28617	166.60152	-100.38086	67.82205	230.61713	-128.58252	39.44992	274.99084	-250.72568	1046.89453	593.69971	-81.38023	1037.60168	691.68726	-164.04720	755.44452	767.27783	-157.76117	710.21741	761.81482	-102.02395	756.65271	766.32312	-104.18783	709.52063	762.48560	-152.25687	525.75189	732.61487	-139.26540	520.86682	599.02979	-233.61272	439.85425	748.65070	-241.22418	397.53720	756.12592	-173.93347	421.65887	750.01575	-190.18610	382.74588	758.01208	-286.23126	103.82135	718.75482	-262.19376	117.10233	639.18793	-356.99570	69.39178	668.57410	-138.28082	46.78849	648.34692	-100.96109	62.15492	686.63049	-142.16013	37.59846	755.61810
718	5.97500	-226.47260	1028.39380	480.53281	-42.37601	988.44366	434.14651	-172.61844	740.81952	361.71887	-169.29639	697.65582	351.69974	-110.99051	743.58728	352.46732	-115.72096	699.47021	343.87717	-143.41911	517.89703	337.61652	-133.27431	474.73639	453.81842	-219.35362	447.62698	297.33127	-228.81989	406.65128	274.40408	-161.53398	430.21805	294.05652	-180.31410	390.24014	274.38327	-281.76254	112.59744	215.04665	-267.87927	100.67987	293.29111	-344.69302	79.79399	248.01115	-158.85873	41.28658	166.58134	-100.05706	67.74017	230.92690	-128.54997	39.44556	275.01984	-249.42612	1045.16809	590.34351	-79.48650	1037.88855	689.09009	-163.02400	755.34973	764.12726	-156.98138	710.18854	758.76147	-100.94776	756.53156	763.78345	-103.33349	709.40350	759.91974	-151.37560	525.69202	730.50885	-137.60089	520.06207	597.00928	-232.87106	440.13205	746.75665	-240.48787	397.88660	754.36224	-173.25732	421.80096	748.34229	-189.48634	383.01871	756.48749	-286.08722	104.01053	718.39172	-262.03296	117.05626	638.84003	-356.97122	69.47643	668.47894	-138.24408	46.78370	648.32593	-100.93748	62.14696	686.64008	-142.35283	37.43192	755.51099
719	5.98333	-224.70554	1027.13818	477.16309	-40.09448	990.62274	430.84470	-169.06966	741.51123	358.42603	-166.11636	698.13849	348.86520	-107.88663	743.77234	349.49438	-112.47336	699.83813	341.25699	-141.36244	518.08234	335.69070	-131.57448	475.36340	452.10126	-217.74126	447.71008	295.73889	-227.49959	406.58923	273.08154	-159.98128	430.14188	292.63571	-178.73830	390.28372	273.30234	-281.57574	112.68885	215.01163	-267.75302	100.80818	293.25778	-344.62714	80.00339	248.14383	-158.85698	41.26917	166.55534	-99.97926	67.63734	230.87802	-128.48001	39.44106	275.02475	-248.04047	1043.02734	587.02679	-77.64218	1038.23401	686.33527	-162.20714	755.30548	760.79138	-156.02736	710.09570	755.66541	-99.96719	756.52417	761.08960	-102.36063	709.32703	757.37305	-150.60959	525.65131	728.34644	-135.88031	519.28217	594.94342	-232.08838	440.36902	744.85376	-239.94394	398.21585	752.63391	-172.53050	421.99109	746.63586	-188.96777	383.14038	754.92340	-286.00580	104.19253	718.05267	-261.85959	117.00408	638.45697	-356.94778	69.55835	668.37292	-138.16946	46.79490	648.31909	-100.89725	62.13848	686.61340	-142.32489	37.49854	755.48895
720	5.99167	-222.75475	1026.51782	473.48407	-37.71011	992.79297	427.45206	-166.20358	741.79541	355.33908	-162.86629	698.55927	345.89124	-104.61485	744.13971	346.58194	-109.35921	700.07648	338.59198	-139.16960	518.20538	333.61942	-129.74518	476.08084	450.38486	-216.19568	447.85529	294.11163	-226.06511	406.60715	271.64529	-158.52527	429.94083	291.02478	-177.32162	390.12491	271.91696	-281.40869	112.71661	214.93497	-267.62540	100.91864	293.18747	-344.48102	80.17939	248.26915	-158.84647	41.20526	166.50218	-99.90681	67.52773	230.81163	-128.41747	39.42357	274.99582	-246.54607	1041.49744	583.37946	-75.66240	1038.44592	683.51166	-161.23495	755.26978	757.44360	-155.01292	709.98151	752.56427	-98.84608	756.59790	758.36835	-101.45837	709.18567	754.67975	-149.87128	525.73077	726.15009	-134.23982	518.51788	592.82922	-231.19702	440.90399	742.70612	-239.19597	398.49561	750.78284	-172.51070	421.75272	745.15198	-188.27632	383.47876	753.32416	-285.92670	104.36430	717.72449	-261.67288	116.91252	638.02509	-356.89606	69.64236	668.24591	-138.15218	46.73349	648.29633	-100.84589	62.10296	686.58990	-142.15906	37.75486	755.55408
721	6.00000	-220.70306	1025.49170	469.88507	-35.67105	994.73932	423.96127	-162.97749	742.18494	351.95419	-159.81841	698.75989	342.85266	-101.23944	744.52460	343.60498	-106.13454	700.25256	335.76453	-136.83649	518.25781	331.42389	-127.93922	476.75732	448.55005	-214.38588	447.94016	292.34088	-224.67130	406.60233	270.19260	-156.89207	429.72650	289.31952	-175.90170	389.92517	270.56189	-281.26529	112.71056	214.81273	-267.50067	101.02473	293.09094	-344.43210	80.27328	248.29630	-158.86061	41.07811	166.41162	-99.84205	67.39427	230.71114	-128.37689	39.39295	274.97260	-244.77213	1039.59570	579.83765	-73.76400	1038.55933	680.60986	-160.23811	755.05035	754.10712	-154.05292	710.09521	749.07135	-97.92856	756.42633	755.59033	-100.59773	708.94147	751.92859	-149.11374	525.80005	723.85645	-132.69313	517.64185	590.71155	-230.64592	440.97192	740.63367	-238.76807	398.85324	748.89630	-171.37337	422.36572	742.96436	-187.74763	383.69617	751.60687	-285.80188	104.58595	717.32098	-261.51886	116.81253	637.62506	-356.81024	69.77017	668.06622	-138.10472	46.65409	648.26593	-100.76835	62.05827	686.53986	-142.12785	37.77103	755.49554
722	6.00833	-217.84218	1024.55762	466.35699	-33.75451	996.55902	420.47482	-159.92706	742.36743	348.43076	-156.74211	698.92664	339.68362	-98.18010	744.64813	340.37219	-103.03673	700.30389	332.82773	-134.51770	518.26318	329.11469	-126.06132	477.29776	446.58987	-212.79439	447.90533	290.49911	-223.05936	406.60886	268.47345	-155.36853	429.49149	287.44110	-174.45389	389.74255	268.78848	-281.14746	112.66707	214.65114	-267.40237	101.14487	292.92975	-344.40186	80.41422	248.25157	-158.88005	41.00738	166.27560	-99.78338	67.29427	230.58049	-128.33751	39.39937	274.90884	-241.98428	1037.87341	576.39362	-71.85103	1038.74658	677.55841	-159.38945	754.92029	750.68622	-153.01781	709.91156	745.85876	-97.15081	756.14600	752.71375	-99.66965	708.80231	749.14142	-148.39740	525.92896	721.55273	-131.04497	516.94305	588.50653	-229.91554	441.35587	738.52429	-237.97150	399.52496	746.85645	-170.66574	422.59766	741.08728	-187.73044	383.58325	750.01251	-285.57111	104.88509	716.87170	-261.31625	116.71635	637.18988	-356.72961	69.90395	667.86188	-138.07927	46.62190	648.21198	-100.66848	62.05711	686.47675	-142.34290	37.60096	755.34509
723	6.01667	-215.91394	1023.69757	462.47192	-31.95707	998.27832	416.95258	-156.99152	742.49982	344.72714	-153.53314	699.02185	336.33136	-95.20816	744.67603	336.97314	-100.13431	700.35468	329.69443	-132.12784	518.13989	326.60583	-124.05477	478.00931	444.40540	-211.13495	447.82584	288.56387	-221.77507	406.44177	266.83710	-153.71626	429.25259	285.39337	-173.04903	389.45676	267.12427	-281.01016	112.60857	214.42912	-267.29999	101.28194	292.68201	-344.36096	80.36899	248.16518	-158.92400	40.88919	166.12450	-99.76856	67.21638	230.42525	-128.32619	39.46159	274.84250	-240.41165	1036.21228	572.52576	-70.01404	1038.75415	674.53992	-158.54686	754.76593	747.17993	-152.30814	709.70306	742.74310	-96.29811	756.05316	749.80090	-98.82788	708.64832	746.33008	-147.67725	526.00061	719.20947	-129.35703	516.23883	586.23663	-229.10342	441.92172	736.25214	-237.60052	400.00977	744.88153	-170.44038	422.61356	739.35101	-187.13867	384.00793	748.23938	-285.39764	105.18980	716.44482	-261.09689	116.65147	636.75812	-356.63800	70.08300	667.62207	-137.99794	46.62112	648.15881	-100.59315	62.06310	686.42853	-142.34531	37.68767	755.29541
724	6.02500	-213.92039	1022.90625	458.45667	-30.21162	999.85168	413.29684	-154.01826	742.61096	340.79291	-151.09500	698.92273	332.76236	-92.42556	744.64001	333.40527	-97.31644	700.20264	326.39478	-129.71651	517.93488	323.99002	-122.03056	478.46671	441.99249	-209.53590	447.77173	286.39154	-220.26941	406.25211	264.91226	-152.19435	428.90680	283.15671	-171.72809	389.07147	265.21078	-280.84702	112.48381	214.16609	-267.18069	101.40174	292.36679	-344.36996	80.39455	247.97687	-158.95537	40.77116	165.97231	-99.76125	67.12637	230.25996	-128.29578	39.52124	274.75232	-238.73369	1034.65198	568.52637	-68.19132	1038.71472	671.53564	-157.86836	754.60846	743.61249	-151.25156	709.35394	739.21252	-95.51070	755.83417	746.85052	-98.23527	708.39551	743.45770	-146.93701	526.06531	716.91937	-127.57781	515.47833	584.08063	-228.30919	442.28381	734.03467	-236.97849	400.43045	742.93347	-169.72583	422.94446	737.41193	-186.46066	384.34537	746.55316	-285.28275	105.41540	716.10242	-260.89240	116.60693	636.31696	-356.51730	70.23653	667.41779	-137.95792	46.57716	648.12665	-100.50900	62.05848	686.36499	-142.32750	37.77497	755.23193
